<svg width="78" height="78" viewBox="0 0 78 78" fill="none" xmlns="http://www.w3.org/2000/svg">
<path fill-rule="evenodd" clip-rule="evenodd" d="M59.414 0C70.6875 0 78 7.3125 78 18.586V59.414C78 70.6875 70.6875 78 59.414 78H18.586C7.3125 78 0 70.6875 0 59.414V18.586C0 7.3125 7.3125 0 18.586 0H59.414Z" fill="url(#paint0_linear)"/>
<path d="M62.8754 53.2987C62.4742 52.6726 61.9496 52.1312 61.3324 51.7061C60.7152 51.281 60.0177 50.9808 59.2808 50.8229C56.4612 50.1802 54.0159 48.4696 52.4791 46.065C50.9423 43.6603 50.4391 40.7571 51.0793 37.9899C51.3254 36.9204 51.2436 35.8034 50.8442 34.7792C50.4448 33.7551 49.7457 32.8694 48.8345 32.2335C47.9232 31.5976 46.8406 31.2399 45.7226 31.2051C44.6046 31.1703 43.5011 31.4601 42.5506 32.0381C41.6001 32.6161 40.845 33.4564 40.3801 34.4537C39.9153 35.451 39.7614 36.5606 39.9379 37.6433C40.1143 38.726 40.6132 39.7335 41.3719 40.5392C42.1305 41.3449 43.1152 41.9129 44.2021 42.1718C45.6083 42.4827 46.9379 43.0625 48.115 43.8782C49.2921 44.6937 50.2933 45.7291 51.0614 46.9247C51.8295 48.1203 52.3492 49.4528 52.5909 50.8457C52.8327 52.2386 52.7915 53.6646 52.4699 55.0419C52.2794 55.9298 52.3134 56.8499 52.5688 57.7219C52.8243 58.594 53.2934 59.3915 53.9354 60.0452C54.5774 60.6988 55.3726 61.1886 56.252 61.4719C57.1313 61.7552 58.068 61.8233 58.9803 61.6705C59.8928 61.5177 60.7531 61.1484 61.4866 60.5949C62.22 60.0414 62.8042 59.3206 63.1883 58.4951C63.5723 57.6695 63.7446 56.7645 63.6901 55.8588C63.6356 54.9531 63.356 54.0742 62.8754 53.2987Z" fill="#FFD55A"/>
<path d="M27.9788 47.1232C28.9717 47.6543 30.1038 47.8825 31.2299 47.7786C32.356 47.6746 33.4247 47.2432 34.299 46.5397C35.1733 45.8362 35.8132 44.8927 36.1365 43.8303C36.46 42.7678 36.4521 41.6349 36.114 40.5769C35.6855 39.2277 35.5329 37.809 35.6649 36.4019C35.7968 34.9948 36.2108 33.6271 36.8831 32.3772C37.5554 31.1273 38.4728 30.0198 39.5826 29.118C40.6925 28.2163 41.9729 27.5382 43.3507 27.1225C44.4192 26.7945 45.3648 26.1639 46.0686 25.3103C46.7724 24.4566 47.2028 23.418 47.3058 22.3251C47.4088 21.2322 47.1797 20.1338 46.6473 19.1683C46.1149 18.2027 45.3031 17.4131 44.314 16.8987C43.3248 16.3844 42.2026 16.1683 41.0885 16.2777C39.9744 16.3871 38.9181 16.817 38.0527 17.5134C37.1872 18.2098 36.5513 19.1416 36.2248 20.1915C35.8984 21.2413 35.896 22.3624 36.2181 23.4135C37.0634 26.1273 36.7775 29.0588 35.4231 31.5664C34.0686 34.0741 31.7558 35.9536 28.9909 36.7936C27.8994 37.1039 26.9281 37.7282 26.2026 38.5857C25.4772 39.4432 25.031 40.4944 24.9219 41.6032C24.8129 42.7121 25.046 43.8275 25.591 44.805C26.136 45.7825 26.9678 46.5772 27.9788 47.0861V47.1232Z" fill="#F8F8FF"/>
<path d="M42.5845 46.2144C41.8298 46.2403 41.0881 46.4137 40.4026 46.7242C39.7171 47.0346 39.1018 47.476 38.5925 48.0226C36.6167 50.094 33.8845 51.3144 30.9934 51.4169C28.1022 51.5195 25.2872 50.4957 23.1638 48.5696C22.6152 48.065 21.9698 47.6724 21.2649 47.4145C20.5602 47.1566 19.8101 47.0387 19.0584 47.0675C18.1331 47.1103 17.2325 47.3744 16.4353 47.8368C15.638 48.2992 14.9685 48.9459 14.4849 49.7203C14.0013 50.4948 13.7184 51.3735 13.6609 52.2797C13.6035 53.186 13.7732 54.0922 14.1553 54.9194C14.5374 55.7466 15.1201 56.4695 15.8528 57.0251C16.5855 57.5808 17.4457 57.9521 18.3585 58.1068C19.2713 58.2615 20.2089 58.195 21.0894 57.9128C21.9699 57.6307 22.7665 57.1416 23.4098 56.4883C24.3883 55.4498 25.5662 54.6107 26.876 54.0192C28.1859 53.4277 29.6019 53.0952 31.043 53.0409C32.4841 52.9867 33.9221 53.2116 35.2743 53.7029C36.6266 54.1943 37.8667 54.9423 38.9236 55.9041C39.6117 56.5135 40.4416 56.9484 41.3408 57.1706C42.24 57.3929 43.181 57.3959 44.0816 57.1792C44.9822 56.9625 45.8149 56.5329 46.5069 55.9278C47.1989 55.3227 47.7291 54.5606 48.0512 53.7082C48.3733 52.8558 48.4773 51.939 48.3544 51.038C48.2313 50.1371 47.885 49.2795 47.3455 48.54C46.8061 47.8006 46.0902 47.2021 45.2602 46.7966C44.4302 46.3913 43.5115 46.1913 42.5845 46.2144Z" fill="#6DD47E"/>
<defs>
<linearGradient id="paint0_linear" x1="0" y1="0" x2="0" y2="78" gradientUnits="userSpaceOnUse">
<stop/>
<stop offset="0.227949" stop-color="#0A0A0A"/>
<stop offset="1" stop-color="#36454F"/>
</linearGradient>
</defs>
</svg>
